<svg xmlns="http://www.w3.org/2000/svg" width="900" height="420" viewBox="0 0 900 420">
  <rect width="100%" height="100%" fill="#fffaf2"/>
  <text x="80" y="34" font-family="Segoe UI, Arial, sans-serif" font-size="24" font-weight="700" fill="#2f241f">Osmanthus Apricot-Suede Chypre — 30mL EdP - Temporal Graph</text>
  <text x="80" y="56" font-family="Segoe UI, Arial, sans-serif" font-size="13" fill="#6a5a50">Top, heart, and base balance across the wear curve</text>
  <line x1="80" y1="350.00" x2="860" y2="350.00" stroke="#e7ddd2" stroke-width="1"/><text x="68" y="355.00" text-anchor="end" font-family="Segoe UI, Arial, sans-serif" font-size="12" fill="#6a5a50">0</text><line x1="80" y1="280.00" x2="860" y2="280.00" stroke="#e7ddd2" stroke-width="1"/><text x="68" y="285.00" text-anchor="end" font-family="Segoe UI, Arial, sans-serif" font-size="12" fill="#6a5a50">25</text><line x1="80" y1="210.00" x2="860" y2="210.00" stroke="#e7ddd2" stroke-width="1"/><text x="68" y="215.00" text-anchor="end" font-family="Segoe UI, Arial, sans-serif" font-size="12" fill="#6a5a50">50</text><line x1="80" y1="140.00" x2="860" y2="140.00" stroke="#e7ddd2" stroke-width="1"/><text x="68" y="145.00" text-anchor="end" font-family="Segoe UI, Arial, sans-serif" font-size="12" fill="#6a5a50">75</text><line x1="80" y1="70.00" x2="860" y2="70.00" stroke="#e7ddd2" stroke-width="1"/><text x="68" y="75.00" text-anchor="end" font-family="Segoe UI, Arial, sans-serif" font-size="12" fill="#6a5a50">100</text>
  <line x1="80" y1="70" x2="80" y2="350" stroke="#8d7d72" stroke-width="1.5"/>
  <line x1="80" y1="350" x2="860" y2="350" stroke="#8d7d72" stroke-width="1.5"/>
  <polyline fill="none" stroke="#d97706" stroke-width="4" stroke-linecap="round" stroke-linejoin="round" points="80.0,256.2 236.0,168.0 392.0,135.24 548.0,171.64 704.0,197.68 860.0,302.12"/>
  <polyline fill="none" stroke="#0f766e" stroke-width="4" stroke-linecap="round" stroke-linejoin="round" points="80.0,339.92 236.0,324.52 392.0,298.2 548.0,280.28 704.0,266.84 860.0,187.6"/>
  <polyline fill="none" stroke="#7c3aed" stroke-width="4" stroke-linecap="round" stroke-linejoin="round" points="80.0,173.6 236.0,277.48 392.0,336.56 548.0,318.08 704.0,305.48 860.0,280.0"/>
  <circle cx="80.0" cy="256.2" r="4" fill="#d97706" stroke="#fffaf2" stroke-width="2"/><circle cx="236.0" cy="168.0" r="4" fill="#d97706" stroke="#fffaf2" stroke-width="2"/><circle cx="392.0" cy="135.24" r="4" fill="#d97706" stroke="#fffaf2" stroke-width="2"/><circle cx="548.0" cy="171.64" r="4" fill="#d97706" stroke="#fffaf2" stroke-width="2"/><circle cx="704.0" cy="197.68" r="4" fill="#d97706" stroke="#fffaf2" stroke-width="2"/><circle cx="860.0" cy="302.12" r="4" fill="#d97706" stroke="#fffaf2" stroke-width="2"/>
  <circle cx="80.0" cy="339.92" r="4" fill="#0f766e" stroke="#fffaf2" stroke-width="2"/><circle cx="236.0" cy="324.52" r="4" fill="#0f766e" stroke="#fffaf2" stroke-width="2"/><circle cx="392.0" cy="298.2" r="4" fill="#0f766e" stroke="#fffaf2" stroke-width="2"/><circle cx="548.0" cy="280.28" r="4" fill="#0f766e" stroke="#fffaf2" stroke-width="2"/><circle cx="704.0" cy="266.84" r="4" fill="#0f766e" stroke="#fffaf2" stroke-width="2"/><circle cx="860.0" cy="187.6" r="4" fill="#0f766e" stroke="#fffaf2" stroke-width="2"/>
  <circle cx="80.0" cy="173.6" r="4" fill="#7c3aed" stroke="#fffaf2" stroke-width="2"/><circle cx="236.0" cy="277.48" r="4" fill="#7c3aed" stroke="#fffaf2" stroke-width="2"/><circle cx="392.0" cy="336.56" r="4" fill="#7c3aed" stroke="#fffaf2" stroke-width="2"/><circle cx="548.0" cy="318.08" r="4" fill="#7c3aed" stroke="#fffaf2" stroke-width="2"/><circle cx="704.0" cy="305.48" r="4" fill="#7c3aed" stroke="#fffaf2" stroke-width="2"/><circle cx="860.0" cy="280.0" r="4" fill="#7c3aed" stroke="#fffaf2" stroke-width="2"/>
  <text x="80.00" y="390" text-anchor="middle" font-family="Segoe UI, Arial, sans-serif" font-size="12" fill="#6a5a50">0min</text><text x="236.00" y="390" text-anchor="middle" font-family="Segoe UI, Arial, sans-serif" font-size="12" fill="#6a5a50">15min</text><text x="392.00" y="390" text-anchor="middle" font-family="Segoe UI, Arial, sans-serif" font-size="12" fill="#6a5a50">1hr</text><text x="548.00" y="390" text-anchor="middle" font-family="Segoe UI, Arial, sans-serif" font-size="12" fill="#6a5a50">4hr</text><text x="704.00" y="390" text-anchor="middle" font-family="Segoe UI, Arial, sans-serif" font-size="12" fill="#6a5a50">8hr</text><text x="860.00" y="390" text-anchor="middle" font-family="Segoe UI, Arial, sans-serif" font-size="12" fill="#6a5a50">24hr</text>
  
    <g transform="translate(620,28)">
      <line x1="0" y1="0" x2="26" y2="0" stroke="#d97706" stroke-width="4" stroke-linecap="round"/>
      <text x="34" y="5" font-family="Segoe UI, Arial, sans-serif" font-size="13" fill="#2f241f">Top</text>
      <line x1="90" y1="0" x2="116" y2="0" stroke="#0f766e" stroke-width="4" stroke-linecap="round"/>
      <text x="124" y="5" font-family="Segoe UI, Arial, sans-serif" font-size="13" fill="#2f241f">Heart</text>
      <line x1="200" y1="0" x2="226" y2="0" stroke="#7c3aed" stroke-width="4" stroke-linecap="round"/>
      <text x="234" y="5" font-family="Segoe UI, Arial, sans-serif" font-size="13" fill="#2f241f">Base</text>
    </g>
    
</svg>